{
  "accessors": [
    {
      "bufferView": 0,
      "componentType": 5126,
      "count": 63669,
      "max": [
        0.0918539986014366,
        0.0635650008916855,
        0.0432999990880489
      ],
      "min": [
        -0.0917939990758896,
        -0.0634960010647774,
        -0.043274000287056
      ],
      "type": "VEC3"
    },
    {
      "bufferView": 1,
      "componentType": 5126,
      "count": 63669,
      "type": "VEC3"
    },
    {
      "bufferView": 2,
      "componentType": 5126,
      "count": 63669,
      "type": "VEC2"
    },
    {
      "bufferView": 3,
      "componentType": 5123,
      "count": 300000,
      "type": "SCALAR"
    }
  ],
  "asset": {
    "generator": "MeshSmith mesh conversion tool",
    "version": "2.0"
  },
  "bufferViews": [
    {
      "buffer": 0,
      "byteLength": 764028,
      "target": 34962
    },
    {
      "buffer": 0,
      "byteLength": 764028,
      "byteOffset": 764028,
      "target": 34962
    },
    {
      "buffer": 0,
      "byteLength": 509352,
      "byteOffset": 1528056,
      "target": 34962
    },
    {
      "buffer": 0,
      "byteLength": 600000,
      "byteOffset": 2037408,
      "target": 34963
    }
  ],
  "buffers": [
    {
      "byteLength": 2637408,
      "uri": "usnm_201-100k-2048.bin"
    }
  ],
  "images": [
    {
      "uri": "usnm_201-100k-2048-diffuse.jpg"
    },
    {
      "uri": "usnm_201-100k-2048-occlusion.jpg"
    },
    {
      "uri": "usnm_201-100k-2048-normals.jpg"
    }
  ],
  "materials": [
    {
      "name": "default",
      "normalTexture": {
        "index": 2
      },
      "occlusionTexture": {
        "index": 1
      },
      "pbrMetallicRoughness": {
        "baseColorTexture": {
          "index": 0
        },
        "metallicFactor": 0.100000001490116,
        "roughnessFactor": 0.800000011920929
      }
    }
  ],
  "meshes": [
    {
      "primitives": [
        {
          "attributes": {
            "NORMAL": 1,
            "POSITION": 0,
            "TEXCOORD_0": 2
          },
          "indices": 3,
          "material": 0,
          "mode": 4
        }
      ]
    }
  ],
  "nodes": [
    {
      "mesh": 0
    }
  ],
  "scene": 0,
  "scenes": [
    {
      "nodes": [
        0
      ]
    }
  ],
  "textures": [
    {
      "source": 0
    },
    {
      "source": 1
    },
    {
      "source": 2
    }
  ]
}